# xmcd
#
# Track frame offsets:
#	150
#	16500
#	33415
#	51845
#	74020
#	88497
#	108557
#	130952
#	144785
#
# Disc length: 2216 seconds
#
# Revision: 1
# Processed by: cddbd v1.4PL0 Copyright (c) Steve Scherf et al.
# Submitted via: CDRider 2.0
#
DISCID=7b08a609
DTITLE=Subway - Good Times
DYEAR=1995
DGENRE=R&B
TTITLE0=Chi-Town Ride(feat.Easy, Twista)
TTITLE1=The Better The Love
TTITLE2=Fire
TTITLE3=This LiL' Game We Play(feat.702)
TTITLE4=Get Da Money
TTITLE5=This Is Not A Goodbye
TTITLE6=Sticky Situation
TTITLE7=Get Da Money(Phat Pocket's Remix)
TTITLE8=Goodtimes
EXTD=
EXTT0=
EXTT1=
EXTT2=
EXTT3=
EXTT4=
EXTT5=
EXTT6=
EXTT7=
EXTT8=
PLAYORDER=
